<?xml version="1.0" encoding="UTF-8" standalone="no"?><svg xmlns="http://www.w3.org/2000/svg" xmlns:xlink="http://www.w3.org/1999/xlink" contentScriptType="application/ecmascript" contentStyleType="text/css" height="301px" preserveAspectRatio="none" style="width:352px;height:301px;background:#FFFFFF;" version="1.1" viewBox="0 0 352 301" width="352px" zoomAndPan="magnify"><defs/><g><rect fill="#FFFFFF" height="115.9316" style="stroke:#383838;stroke-width:1.0;" width="10" x="177" y="98.7988"/><rect fill="#FFFFFF" height="14" style="stroke:#383838;stroke-width:1.0;" width="10" x="301" y="128.1094"/><rect fill="#FFFFFF" height="14" style="stroke:#383838;stroke-width:1.0;" width="10" x="301" y="171.4199"/><line style="stroke:#383838;stroke-width:1.0;stroke-dasharray:5.0,5.0;" x1="54" x2="54" y1="67.4883" y2="232.7305"/><line style="stroke:#383838;stroke-width:1.0;stroke-dasharray:5.0,5.0;" x1="182" x2="182" y1="67.4883" y2="232.7305"/><line style="stroke:#383838;stroke-width:1.0;stroke-dasharray:5.0,5.0;" x1="306" x2="306" y1="67.4883" y2="232.7305"/><rect fill="#F8F8F8" height="30.4883" style="stroke:#383838;stroke-width:1.5;" width="98" x="5" y="36"/><text fill="#000000" font-family="sans-serif" font-size="14" lengthAdjust="spacing" textLength="84" x="12" y="56.5352">クライアント</text><rect fill="#F8F8F8" height="30.4883" style="stroke:#383838;stroke-width:1.5;" width="98" x="5" y="231.7305"/><text fill="#000000" font-family="sans-serif" font-size="14" lengthAdjust="spacing" textLength="84" x="12" y="252.2656">クライアント</text><rect fill="#F8F8F8" height="30.4883" style="stroke:#383838;stroke-width:1.5;" width="70" x="147" y="36"/><text fill="#000000" font-family="sans-serif" font-size="14" lengthAdjust="spacing" textLength="56" x="154" y="56.5352">サーバー</text><rect fill="#F8F8F8" height="30.4883" style="stroke:#383838;stroke-width:1.5;" width="70" x="147" y="231.7305"/><text fill="#000000" font-family="sans-serif" font-size="14" lengthAdjust="spacing" textLength="56" x="154" y="252.2656">サーバー</text><text fill="#000000" font-family="sans-serif" font-size="14" lengthAdjust="spacing" textLength="84" x="261" y="64.5352">データベース</text><path d="M288,15 C288,5 306,5 306,5 C306,5 324,5 324,15 L324,41 C324,51 306,51 306,51 C306,51 288,51 288,41 L288,15 " fill="#F8F8F8" style="stroke:#000000;stroke-width:1.5;"/><path d="M288,15 C288,25 306,25 306,25 C306,25 324,25 324,15 " fill="none" style="stroke:#000000;stroke-width:1.5;"/><text fill="#000000" font-family="sans-serif" font-size="14" lengthAdjust="spacing" textLength="84" x="261" y="245.2656">データベース</text><path d="M288,258.2188 C288,248.2188 306,248.2188 306,248.2188 C306,248.2188 324,248.2188 324,258.2188 L324,284.2188 C324,294.2188 306,294.2188 306,294.2188 C306,294.2188 288,294.2188 288,284.2188 L288,258.2188 " fill="#F8F8F8" style="stroke:#000000;stroke-width:1.5;"/><path d="M288,258.2188 C288,268.2188 306,268.2188 306,268.2188 C306,268.2188 324,268.2188 324,258.2188 " fill="none" style="stroke:#000000;stroke-width:1.5;"/><rect fill="#FFFFFF" height="115.9316" style="stroke:#383838;stroke-width:1.0;" width="10" x="177" y="98.7988"/><rect fill="#FFFFFF" height="14" style="stroke:#383838;stroke-width:1.0;" width="10" x="301" y="128.1094"/><rect fill="#FFFFFF" height="14" style="stroke:#383838;stroke-width:1.0;" width="10" x="301" y="171.4199"/><polygon fill="#383838" points="165,94.7988,175,98.7988,165,102.7988,169,98.7988" style="stroke:#383838;stroke-width:1.0;"/><line style="stroke:#383838;stroke-width:1.0;" x1="54" x2="171" y1="98.7988" y2="98.7988"/><text fill="#000000" font-family="sans-serif" font-size="13" lengthAdjust="spacing" textLength="104" x="61" y="94.0566">リクエストを送信</text><polygon fill="#383838" points="289,124.1094,299,128.1094,289,132.1094,293,128.1094" style="stroke:#383838;stroke-width:1.0;"/><line style="stroke:#383838;stroke-width:1.0;" x1="187" x2="295" y1="128.1094" y2="128.1094"/><text fill="#000000" font-family="sans-serif" font-size="13" lengthAdjust="spacing" textLength="80" x="194" y="123.3672">Articleを取得</text><polygon fill="#383838" points="198,138.1094,188,142.1094,198,146.1094,194,142.1094" style="stroke:#383838;stroke-width:1.0;"/><line style="stroke:#383838;stroke-width:1.0;stroke-dasharray:2.0,2.0;" x1="192" x2="305" y1="142.1094" y2="142.1094"/><polygon fill="#383838" points="289,167.4199,299,171.4199,289,175.4199,293,171.4199" style="stroke:#383838;stroke-width:1.0;"/><line style="stroke:#383838;stroke-width:1.0;" x1="187" x2="295" y1="171.4199" y2="171.4199"/><text fill="#000000" font-family="sans-serif" font-size="13" lengthAdjust="spacing" textLength="95" x="194" y="166.6777">Categoryを取得</text><polygon fill="#383838" points="198,181.4199,188,185.4199,198,189.4199,194,185.4199" style="stroke:#383838;stroke-width:1.0;"/><line style="stroke:#383838;stroke-width:1.0;stroke-dasharray:2.0,2.0;" x1="192" x2="305" y1="185.4199" y2="185.4199"/><polygon fill="#383838" points="65,210.7305,55,214.7305,65,218.7305,61,214.7305" style="stroke:#383838;stroke-width:1.0;"/><line style="stroke:#383838;stroke-width:1.0;stroke-dasharray:2.0,2.0;" x1="59" x2="181" y1="214.7305" y2="214.7305"/><text fill="#000000" font-family="sans-serif" font-size="13" lengthAdjust="spacing" textLength="70" x="71" y="209.9883">JSONを返却</text><!--MD5=[c81d292ef1e8e35086b129628bcea255]
@startuml communication-graphql
skinparam monochrome true
skinparam shadowing false

participant クライアント as client
participant サーバー as server
database データベース as db

client -> server ++ : リクエストを送信
    server -> db ++ : Articleを取得
    return
    server -> db ++ : Categoryを取得
    return
return JSONを返却
@enduml

PlantUML version 1.2021.9(Sun Jul 25 19:13:56 JST 2021)
(GPL source distribution)
Java Runtime: OpenJDK Runtime Environment
JVM: OpenJDK 64-Bit Server VM
Default Encoding: UTF-8
Language: ja
Country: JP
--></g></svg>