<?xml version="1.0" encoding="UTF-8" standalone="no"?><svg xmlns="http://www.w3.org/2000/svg" xmlns:xlink="http://www.w3.org/1999/xlink" contentScriptType="application/ecmascript" contentStyleType="text/css" height="359px" preserveAspectRatio="none" style="width:399px;height:359px;background:#FFFFFF;" version="1.1" viewBox="0 0 399 359" width="399px" zoomAndPan="magnify"><defs/><g><rect fill="#FFFFFF" height="72.6211" style="stroke:#383838;stroke-width:1.0;" width="10" x="224" y="98.7988"/><rect fill="#FFFFFF" height="72.6211" style="stroke:#383838;stroke-width:1.0;" width="10" x="224" y="200.7305"/><rect fill="#FFFFFF" height="14" style="stroke:#383838;stroke-width:1.0;" width="10" x="348" y="128.1094"/><rect fill="#FFFFFF" height="14" style="stroke:#383838;stroke-width:1.0;" width="10" x="348" y="230.041"/><line style="stroke:#383838;stroke-width:1.0;stroke-dasharray:5.0,5.0;" x1="54" x2="54" y1="67.4883" y2="291.3516"/><line style="stroke:#383838;stroke-width:1.0;stroke-dasharray:5.0,5.0;" x1="229" x2="229" y1="67.4883" y2="291.3516"/><line style="stroke:#383838;stroke-width:1.0;stroke-dasharray:5.0,5.0;" x1="353" x2="353" y1="67.4883" y2="291.3516"/><rect fill="#F8F8F8" height="30.4883" style="stroke:#383838;stroke-width:1.5;" width="98" x="5" y="36"/><text fill="#000000" font-family="sans-serif" font-size="14" lengthAdjust="spacing" textLength="84" x="12" y="56.5352">クライアント</text><rect fill="#F8F8F8" height="30.4883" style="stroke:#383838;stroke-width:1.5;" width="98" x="5" y="290.3516"/><text fill="#000000" font-family="sans-serif" font-size="14" lengthAdjust="spacing" textLength="84" x="12" y="310.8867">クライアント</text><rect fill="#F8F8F8" height="30.4883" style="stroke:#383838;stroke-width:1.5;" width="70" x="194" y="36"/><text fill="#000000" font-family="sans-serif" font-size="14" lengthAdjust="spacing" textLength="56" x="201" y="56.5352">サーバー</text><rect fill="#F8F8F8" height="30.4883" style="stroke:#383838;stroke-width:1.5;" width="70" x="194" y="290.3516"/><text fill="#000000" font-family="sans-serif" font-size="14" lengthAdjust="spacing" textLength="56" x="201" y="310.8867">サーバー</text><text fill="#000000" font-family="sans-serif" font-size="14" lengthAdjust="spacing" textLength="84" x="308" y="64.5352">データベース</text><path d="M335,15 C335,5 353,5 353,5 C353,5 371,5 371,15 L371,41 C371,51 353,51 353,51 C353,51 335,51 335,41 L335,15 " fill="#F8F8F8" style="stroke:#000000;stroke-width:1.5;"/><path d="M335,15 C335,25 353,25 353,25 C353,25 371,25 371,15 " fill="none" style="stroke:#000000;stroke-width:1.5;"/><text fill="#000000" font-family="sans-serif" font-size="14" lengthAdjust="spacing" textLength="84" x="308" y="303.8867">データベース</text><path d="M335,316.8398 C335,306.8398 353,306.8398 353,306.8398 C353,306.8398 371,306.8398 371,316.8398 L371,342.8398 C371,352.8398 353,352.8398 353,352.8398 C353,352.8398 335,352.8398 335,342.8398 L335,316.8398 " fill="#F8F8F8" style="stroke:#000000;stroke-width:1.5;"/><path d="M335,316.8398 C335,326.8398 353,326.8398 353,326.8398 C353,326.8398 371,326.8398 371,316.8398 " fill="none" style="stroke:#000000;stroke-width:1.5;"/><rect fill="#FFFFFF" height="72.6211" style="stroke:#383838;stroke-width:1.0;" width="10" x="224" y="98.7988"/><rect fill="#FFFFFF" height="72.6211" style="stroke:#383838;stroke-width:1.0;" width="10" x="224" y="200.7305"/><rect fill="#FFFFFF" height="14" style="stroke:#383838;stroke-width:1.0;" width="10" x="348" y="128.1094"/><rect fill="#FFFFFF" height="14" style="stroke:#383838;stroke-width:1.0;" width="10" x="348" y="230.041"/><polygon fill="#383838" points="212,94.7988,222,98.7988,212,102.7988,216,98.7988" style="stroke:#383838;stroke-width:1.0;"/><line style="stroke:#383838;stroke-width:1.0;" x1="54" x2="218" y1="98.7988" y2="98.7988"/><text fill="#000000" font-family="sans-serif" font-size="13" lengthAdjust="spacing" textLength="151" x="61" y="94.0566">1回目のリクエストを送信</text><polygon fill="#383838" points="336,124.1094,346,128.1094,336,132.1094,340,128.1094" style="stroke:#383838;stroke-width:1.0;"/><line style="stroke:#383838;stroke-width:1.0;" x1="234" x2="342" y1="128.1094" y2="128.1094"/><text fill="#000000" font-family="sans-serif" font-size="13" lengthAdjust="spacing" textLength="80" x="241" y="123.3672">Articleを取得</text><polygon fill="#383838" points="245,138.1094,235,142.1094,245,146.1094,241,142.1094" style="stroke:#383838;stroke-width:1.0;"/><line style="stroke:#383838;stroke-width:1.0;stroke-dasharray:2.0,2.0;" x1="239" x2="352" y1="142.1094" y2="142.1094"/><polygon fill="#383838" points="65,167.4199,55,171.4199,65,175.4199,61,171.4199" style="stroke:#383838;stroke-width:1.0;"/><line style="stroke:#383838;stroke-width:1.0;stroke-dasharray:2.0,2.0;" x1="59" x2="228" y1="171.4199" y2="171.4199"/><text fill="#000000" font-family="sans-serif" font-size="13" lengthAdjust="spacing" textLength="70" x="71" y="166.6777">JSONを返却</text><polygon fill="#383838" points="212,196.7305,222,200.7305,212,204.7305,216,200.7305" style="stroke:#383838;stroke-width:1.0;"/><line style="stroke:#383838;stroke-width:1.0;" x1="54" x2="218" y1="200.7305" y2="200.7305"/><text fill="#000000" font-family="sans-serif" font-size="13" lengthAdjust="spacing" textLength="151" x="61" y="195.9883">2回目のリクエストを送信</text><polygon fill="#383838" points="336,226.041,346,230.041,336,234.041,340,230.041" style="stroke:#383838;stroke-width:1.0;"/><line style="stroke:#383838;stroke-width:1.0;" x1="234" x2="342" y1="230.041" y2="230.041"/><text fill="#000000" font-family="sans-serif" font-size="13" lengthAdjust="spacing" textLength="95" x="241" y="225.2988">Categoryを取得</text><polygon fill="#383838" points="245,240.041,235,244.041,245,248.041,241,244.041" style="stroke:#383838;stroke-width:1.0;"/><line style="stroke:#383838;stroke-width:1.0;stroke-dasharray:2.0,2.0;" x1="239" x2="352" y1="244.041" y2="244.041"/><polygon fill="#383838" points="65,269.3516,55,273.3516,65,277.3516,61,273.3516" style="stroke:#383838;stroke-width:1.0;"/><line style="stroke:#383838;stroke-width:1.0;stroke-dasharray:2.0,2.0;" x1="59" x2="228" y1="273.3516" y2="273.3516"/><text fill="#000000" font-family="sans-serif" font-size="13" lengthAdjust="spacing" textLength="70" x="71" y="268.6094">JSONを返却</text><!--MD5=[aff3fa0c4c0d82f3653bde80ed5954f7]
@startuml communication-rest
skinparam monochrome true
skinparam shadowing false

participant クライアント as client
participant サーバー as server
database データベース as db

client -> server ++ : 1回目のリクエストを送信
    server -> db ++ : Articleを取得
    return
return JSONを返却
client -> server ++ : 2回目のリクエストを送信
    server -> db ++ : Categoryを取得
    return
return JSONを返却
@enduml

PlantUML version 1.2021.9(Sun Jul 25 19:13:56 JST 2021)
(GPL source distribution)
Java Runtime: OpenJDK Runtime Environment
JVM: OpenJDK 64-Bit Server VM
Default Encoding: UTF-8
Language: ja
Country: JP
--></g></svg>